<svg id="Layer_1" data-name="Layer 1" xmlns="http://www.w3.org/2000/svg" viewBox="0 0 635.04 80"><defs><style>.cls-1{fill:#222a2e;}.cls-2{fill:#ebc382;}.cls-3{fill:#8e9299;}</style></defs><title>density-open-source-logos</title><path class="cls-1" d="M164.55,35.4l-7.73.69c-1.25-7.42-6.79-11.53-14.15-11.53-9.16,0-15.46,6.55-15.46,17.33,0,11.28,6.79,17.33,15.52,17.33,7.29,0,12.78-3.93,14.09-11.1l7.79,0.69c-1.81,10.6-10.53,17-21.63,17-13.34,0-23.31-8.85-23.31-23.94s9.85-23.94,23.25-23.94C154,17.95,163,24.56,164.55,35.4Z"/><path class="cls-1" d="M172.28,65.2V16.76h7V65.2h-7Z"/><path class="cls-1" d="M197.28,22.13a4.39,4.39,0,0,1-4.43,4.36,4.36,4.36,0,0,1,0-8.73A4.39,4.39,0,0,1,197.28,22.13ZM189.36,65.2v-32h7v32h-7Z"/><path class="cls-1" d="M211.86,51.86a8.07,8.07,0,0,0,8.54,7.92c4.05,0,6.73-1.68,7.6-4.55l7,0.37c-1.25,5.67-7,10.22-14.46,10.22-9.41,0-16.14-6.23-16.14-16.58s6.67-16.58,16-16.58,15,6,15,15.77v3.43h-23.5Zm0.06-5.49h16.39c-0.19-4.61-2.81-7.73-8-7.73C215.67,38.64,212.3,41.39,211.93,46.37Z"/><path class="cls-1" d="M271.89,45.94V65.2h-7V46.87c0-4.8-2.74-7.73-7-7.73-4.43,0-7.42,3.37-7.42,7.79V65.2h-7v-32h6.61v4.24c1.62-2.8,4.68-4.8,9.35-4.8C266.72,32.66,271.89,37.65,271.89,45.94Z"/><path class="cls-1" d="M298.51,59.09v6.23a26.35,26.35,0,0,1-4.68.37c-6.3,0-10.66-3.12-10.6-10.35l0.06-16.08h-5.92v-6h5.92l0.06-10.85h7l-0.06,10.85h8.1v6h-8.17l-0.06,14.65c0,4.18,2.43,5.49,5.3,5.49A16.31,16.31,0,0,0,298.51,59.09Z"/><path class="cls-1" d="M310.67,51.86a8.07,8.07,0,0,0,8.54,7.92c4.05,0,6.73-1.68,7.6-4.55l7,0.37c-1.25,5.67-7,10.22-14.46,10.22-9.41,0-16.14-6.23-16.14-16.58s6.67-16.58,16-16.58,15,6,15,15.77v3.43h-23.5Zm0.06-5.49h16.39c-0.19-4.61-2.81-7.73-8-7.73C314.47,38.64,311.1,41.39,310.73,46.37Z"/><path class="cls-1" d="M341,65.2V16.76h7V65.2h-7Z"/><path class="cls-1" d="M361,51.86a8.07,8.07,0,0,0,8.54,7.92c4.05,0,6.73-1.68,7.61-4.55l7,0.37c-1.25,5.67-7,10.22-14.46,10.22-9.41,0-16.14-6.23-16.14-16.58s6.67-16.58,16-16.58,15,6,15,15.77v3.43H361Zm0.06-5.49h16.39c-0.19-4.61-2.81-7.73-8-7.73C364.84,38.64,361.47,41.39,361.1,46.37Z"/><path class="cls-2" d="M40,0A40,40,0,1,0,80,40,40,40,0,0,0,40,0ZM74.7,37.4H56.59c-0.32-11.86-2.78-23.82-7.21-30.91A34.87,34.87,0,0,1,74.7,37.4ZM40,74.81c-4.58,0-10.88-12.19-11.39-32.21H51.39C50.88,62.62,44.58,74.81,40,74.81ZM28.61,37.4C29.12,17.38,35.42,5.19,40,5.19S50.88,17.38,51.39,37.4H28.61Zm2-30.91c-4.42,7.1-6.89,19.05-7.21,30.91H5.3A34.87,34.87,0,0,1,30.62,6.49ZM5.3,42.6H23.41c0.32,11.86,2.78,23.82,7.21,30.91A34.87,34.87,0,0,1,5.3,42.6ZM49.38,73.51c4.42-7.1,6.89-19.05,7.21-30.91H74.7A34.87,34.87,0,0,1,49.38,73.51Z"/><path class="cls-3" d="M436.47,55.54l-2.51.22a4.34,4.34,0,0,0-4.6-3.75c-3,0-5,2.13-5,5.63,0,3.67,2.21,5.63,5,5.63A4.3,4.3,0,0,0,434,59.67l2.53,0.22c-0.59,3.44-3.42,5.53-7,5.53-4.34,0-7.58-2.88-7.58-7.78s3.2-7.78,7.56-7.78C433,49.87,436,52,436.47,55.54Z"/><path class="cls-3" d="M444.14,56.92a2.65,2.65,0,0,0-2.9,2.65v5.65H439V54.83h2.21v1.46a3,3,0,0,1,3-1.58v2.21Z"/><path class="cls-3" d="M454.13,58.76v6.46h-2.29V64.29A4,4,0,0,1,449,65.43c-2.07,0-3.46-1.09-3.46-3,0-2.23,1.68-3,3.81-3.14l2.47-.14V58.8c0-1.34-.57-2.17-1.84-2.17a1.69,1.69,0,0,0-1.86,1.76l-2.29-.08A3.85,3.85,0,0,1,450,54.65C452.65,54.65,454.13,56.11,454.13,58.76ZM449.7,61c-1.07.06-1.84,0.41-1.84,1.34s0.65,1.17,1.56,1.17a2.16,2.16,0,0,0,2.45-2.29V60.87Z"/><path class="cls-3" d="M462.68,49.44v2a5.29,5.29,0,0,0-.65,0,1.83,1.83,0,0,0-1.95,2v1.5h2.55v2h-2.55v8.43h-2.27V56.79h-2v-2h2V53.39a3.71,3.71,0,0,1,4-4A5.41,5.41,0,0,1,462.68,49.44Z"/><path class="cls-3" d="M470.26,63.24v2a8.56,8.56,0,0,1-1.52.12c-2,0-3.46-1-3.44-3.36l0-5.23h-1.92v-2h1.92l0-3.53h2.29l0,3.53h2.63v2h-2.65l0,4.76a1.56,1.56,0,0,0,1.72,1.78A5.28,5.28,0,0,0,470.26,63.24Z"/><path class="cls-3" d="M474.21,60.89A2.62,2.62,0,0,0,477,63.46,2.31,2.31,0,0,0,479.46,62l2.29,0.12a4.63,4.63,0,0,1-4.7,3.32A5,5,0,0,1,471.8,60c0-3.38,2.17-5.39,5.19-5.39s4.86,2,4.86,5.13v1.11h-7.64Zm0-1.78h5.33A2.38,2.38,0,0,0,477,56.59,2.55,2.55,0,0,0,474.23,59.1Z"/><path class="cls-3" d="M492.26,65.22V63.78a3.87,3.87,0,0,1-3.42,1.64c-2.9,0-5-2.09-5-5.39s2.11-5.39,5-5.39a4,4,0,0,1,3.3,1.44v-6.6h2.27V65.22h-2.15ZM486.14,60c0,2.21,1.3,3.42,3.06,3.42a2.83,2.83,0,0,0,2.94-3.16V59.75a2.84,2.84,0,0,0-2.94-3.16C487.44,56.59,486.14,57.83,486.14,60Z"/><path class="cls-3" d="M504.68,56.09a4,4,0,0,1,3.3-1.44c2.9,0,5,2.07,5,5.39s-2.11,5.39-5,5.39a3.87,3.87,0,0,1-3.42-1.64v1.44h-2.15V49.48h2.27v6.6Zm0,3.67V60.3a2.83,2.83,0,0,0,2.94,3.16c1.76,0,3.06-1.22,3.06-3.42s-1.3-3.44-3.06-3.44A2.84,2.84,0,0,0,504.68,59.75Z"/><path class="cls-3" d="M515.4,70.39l2.55-5.9-4.11-9.66h2.53l2.8,7.11,2.8-7.11h2.53l-6.6,15.56H515.4Z"/><path class="cls-1" d="M586.39,54.49h1.93a0.37,0.37,0,0,1,.37.37v1A4,4,0,0,1,592,54.27c2.73,0,4.39,1.77,4.39,4.72v6.32h-2a0.37,0.37,0,0,1-.37-0.37V59.18c0-1.77-.89-2.9-2.62-2.9a2.78,2.78,0,0,0-2.75,3.07v6h-1.95a0.37,0.37,0,0,1-.37-0.37V54.49Z"/><path class="cls-1" d="M598.7,63l1.78-.93a0.36,0.36,0,0,1,.47.11,3.06,3.06,0,0,0,2.6,1.31c1.3,0,2-.67,2-1.43s-1.25-1.06-2.62-1.34c-1.84-.39-3.74-1-3.74-3.22,0-1.71,1.62-3.29,4.18-3.27a4.93,4.93,0,0,1,4.35,2.1l-1.65.91a0.37,0.37,0,0,1-.46-0.09,2.83,2.83,0,0,0-2.24-1c-1.23,0-1.86.61-1.86,1.3s1,1,2.55,1.34c1.77,0.39,3.79,1,3.79,3.22,0,1.49-1.3,3.5-4.37,3.48A5.06,5.06,0,0,1,598.7,63Z"/><path class="cls-1" d="M610.51,50h2a0.37,0.37,0,0,1,.37.37v2.12h-2a0.37,0.37,0,0,1-.37-0.37V50Zm0,4.52h2a0.37,0.37,0,0,1,.37.37V65.31h-2a0.37,0.37,0,0,1-.37-0.37V54.49Z"/><polygon class="cls-1" points="619.82 50.66 619.79 50.67 619.82 50.67 619.82 50.66"/><path class="cls-1" d="M621.91,63.15h-0.3a2.17,2.17,0,0,1-.92-0.18,1.45,1.45,0,0,1-.81-1.11,7.18,7.18,0,0,1-.05-0.93l0-4.38h2.27V54.85a0.37,0.37,0,0,0-.37-0.37h-1.93V50.67h0l-2.12,1.16a0.37,0.37,0,0,0-.19.32v2.34h-1.84V56.2a0.37,0.37,0,0,0,.37.37h1.47v0.2l0,5c0,2.44,1.45,3.49,3.58,3.49h0.06a9.11,9.11,0,0,0,1-.05l0.5-.07V63.49a0.37,0.37,0,0,0-.41-0.36Z"/><path class="cls-1" d="M628.44,64.74L624,54.49h2.25a0.37,0.37,0,0,1,.34.22L629.61,62l2.89-7.28a0.37,0.37,0,0,1,.34-0.23H635L628.6,70.08a0.37,0.37,0,0,1-.34.23h-2.14Z"/><path class="cls-1" d="M578.29,63.47a3.31,3.31,0,0,1-3.48-2.77h8.59a0.37,0.37,0,0,0,.37-0.37v-0.4a5.63,5.63,0,0,0-5.61-5.66,5.57,5.57,0,0,0-5.58,5.67A5.77,5.77,0,0,0,583,63.14l-1.63-.91a0.36,0.36,0,0,0-.45.08A3.41,3.41,0,0,1,578.29,63.47ZM578.2,56.3a3,3,0,0,1,3.2,2.42h-6.49A3.36,3.36,0,0,1,578.2,56.3Z"/><path class="cls-1" d="M557.4,49.89a0.37,0.37,0,0,1,.37-0.37h4.36c5.12,0,8.27,3.41,8.27,7.88a7.83,7.83,0,0,1-8.19,7.88H557.4V49.89Zm2.35,1.79V63.11H562c3.63,0,6-2.46,6-5.7s-2.18-5.72-6.13-5.72h-2.14Z"/><path class="cls-1" d="M539.87,60.6a5.79,5.79,0,0,0,2.8-5V51.81a0.37,0.37,0,0,1,.37-0.37h1.73a0.37,0.37,0,0,1,.37.37v3.83a5.79,5.79,0,0,0,2.8,5l3.41,2a0.37,0.37,0,0,1,.13.5l-0.87,1.5a0.37,0.37,0,0,1-.5.13l-3.35-1.94a5.8,5.8,0,0,0-5.73,0l-3.35,1.94a0.37,0.37,0,0,1-.5-0.13l-0.87-1.5a0.37,0.37,0,0,1,.13-0.5Z"/></svg>